<?xml version="1.0" encoding="UTF-8" standalone="no"?>
<svg
   xmlns:dc="http://purl.org/dc/elements/1.1/"
   xmlns:cc="http://creativecommons.org/ns#"
   xmlns:rdf="http://www.w3.org/1999/02/22-rdf-syntax-ns#"
   xmlns:svg="http://www.w3.org/2000/svg"
   xmlns="http://www.w3.org/2000/svg"
   xmlns:sodipodi="http://sodipodi.sourceforge.net/DTD/sodipodi-0.dtd"
   xmlns:inkscape="http://www.inkscape.org/namespaces/inkscape"
   version="1.2"
   width="800"
   height="626"
   viewBox="0 0 800 626"
   stroke-linecap="round"
   stroke-linejoin="round"
   id="svg67"
   sodipodi:docname="mx_hexgrid_topojson.svg"
   inkscape:version="0.92.3 (2405546, 2018-03-11)">
  <metadata
     id="metadata73">
    <rdf:RDF>
      <cc:Work
         rdf:about="">
        <dc:format>image/svg+xml</dc:format>
        <dc:type
           rdf:resource="http://purl.org/dc/dcmitype/StillImage" />
      </cc:Work>
    </rdf:RDF>
  </metadata>
  <defs
     id="defs71" />
  <sodipodi:namedview
     pagecolor="#ffffff"
     bordercolor="#666666"
     borderopacity="1"
     objecttolerance="10"
     gridtolerance="10"
     guidetolerance="10"
     inkscape:pageopacity="0"
     inkscape:pageshadow="2"
     inkscape:window-width="1366"
     inkscape:window-height="719"
     id="namedview69"
     showgrid="false"
     inkscape:zoom="0.37699681"
     inkscape:cx="-28.385588"
     inkscape:cy="302.38983"
     inkscape:window-x="0"
     inkscape:window-y="25"
     inkscape:window-maximized="1"
     inkscape:current-layer="svg67" />
  <path
     inkscape:connector-curvature="0"
     id="path2"
     d="m 27.0739,134.6318 h 51.4618 l 25.3878,44.5439 -25.3878,44.5439 H 27.0739 L 1,179.1757 Z"
     style="fill:none;fill-opacity:1;stroke-width:4;stroke-miterlimit:4;stroke-dasharray:none;opacity:0.984;stroke:#000000;stroke-opacity:1" />
  <path
     inkscape:connector-curvature="0"
     id="path4"
     d="m 78.5357,45.5439 25.3878,44.5439 -25.3878,44.544 H 27.0739 L 1,90.0878 27.0739,45.5439 Z"
     style="fill:none;fill-opacity:1;stroke-width:4;stroke-miterlimit:4;stroke-dasharray:none;opacity:0.984;stroke:#000000;stroke-opacity:1" />
  <path
     inkscape:connector-curvature="0"
     id="path6"
     d="m 78.5357,134.6318 25.3878,-44.544 h 51.4617 l 26.074,44.544 -26.074,44.5439 h -51.4617 z"
     style="fill:none;fill-opacity:1;stroke-width:4;stroke-miterlimit:4;stroke-dasharray:none;opacity:0.984;stroke:#000000;stroke-opacity:1" />
  <path
     inkscape:connector-curvature="0"
     id="path8"
     d="M 78.5357,45.5439 103.9235,1 h 51.4617 l 26.074,44.5439 -26.074,44.5439 h -51.4617 z"
     style="fill:none;fill-opacity:1;stroke-width:4;stroke-miterlimit:4;stroke-dasharray:none;opacity:0.984;stroke:#000000;stroke-opacity:1" />
  <path
     inkscape:connector-curvature="0"
     id="path10"
     d="m 155.3852,179.1757 26.074,-44.5439 h 51.4617 l 25.3878,44.5439 -25.3878,44.5439 h -51.4617 z"
     style="fill:none;fill-opacity:1;stroke-width:4;stroke-miterlimit:4;stroke-dasharray:none;opacity:0.984;stroke:#000000;stroke-opacity:1" />
  <path
     inkscape:connector-curvature="0"
     id="path12"
     d="m 155.3852,90.0878 26.074,-44.5439 h 51.4617 l 25.3878,44.5439 -25.3878,44.544 h -51.4617 z"
     style="fill:none;fill-opacity:1;stroke-width:4;stroke-miterlimit:4;stroke-dasharray:none;opacity:0.984;stroke:#000000;stroke-opacity:1" />
  <path
     inkscape:connector-curvature="0"
     id="path14"
     d="m 258.3087,447.0331 h 51.4617 l 26.074,44.5439 -26.074,44.5439 H 258.3087 L 232.9209,491.577 Z"
     style="fill:none;fill-opacity:1;stroke-width:4;stroke-miterlimit:4;stroke-dasharray:none;opacity:0.984;stroke:#000000;stroke-opacity:1" />
  <path
     inkscape:connector-curvature="0"
     id="path16"
     d="m 258.3087,357.9453 h 51.4617 l 26.074,44.5439 -26.074,44.5439 h -51.4617 l -25.3878,-44.5439 z"
     style="fill:none;fill-opacity:1;stroke-width:4;stroke-miterlimit:4;stroke-dasharray:none;opacity:0.984;stroke:#000000;stroke-opacity:1" />
  <path
     inkscape:connector-curvature="0"
     id="path18"
     d="m 258.3087,268.2635 h 51.4617 l 26.074,45.1378 -26.074,44.544 h -51.4617 l -25.3878,-44.544 z"
     style="fill:none;fill-opacity:1;stroke-width:4;stroke-miterlimit:4;stroke-dasharray:none;opacity:0.984;stroke:#000000;stroke-opacity:1" />
  <path
     inkscape:connector-curvature="0"
     id="path20"
     d="m 232.9209,223.7196 25.3878,-44.5439 h 51.4617 l 26.074,44.5439 -26.074,44.5439 h -51.4617 z"
     style="fill:none;fill-opacity:1;stroke-width:4;stroke-miterlimit:4;stroke-dasharray:none;opacity:0.984;stroke:#000000;stroke-opacity:1" />
  <path
     inkscape:connector-curvature="0"
     id="path22"
     d="m 232.9209,134.6318 25.3878,-44.544 h 51.4617 l 26.074,44.544 -26.074,44.5439 h -51.4617 z"
     style="fill:none;fill-opacity:1;stroke-width:4;stroke-miterlimit:4;stroke-dasharray:none;opacity:0.984;stroke:#000000;stroke-opacity:1" />
  <path
     inkscape:connector-curvature="0"
     id="path24"
     d="M 232.9209,45.5439 258.3087,1 h 51.4617 l 26.074,44.5439 -26.074,44.5439 h -51.4617 z"
     style="fill:none;fill-opacity:1;stroke-width:4;stroke-miterlimit:4;stroke-dasharray:none;opacity:0.984;stroke:#000000;stroke-opacity:1" />
  <path
     inkscape:connector-curvature="0"
     id="path26"
     d="m 309.7704,447.0331 26.074,-44.5439 h 51.4617 l 25.3878,44.5439 -25.3878,44.5439 h -51.4617 z"
     style="fill:none;fill-opacity:1;stroke-width:4;stroke-miterlimit:4;stroke-dasharray:none;opacity:0.984;stroke:#000000;stroke-opacity:1" />
  <path
     inkscape:connector-curvature="0"
     id="path28"
     d="m 309.7704,357.9453 26.074,-44.544 h 51.4617 l 25.3878,44.544 -25.3878,44.5439 h -51.4617 z"
     style="fill:none;fill-opacity:1;stroke-width:4;stroke-miterlimit:4;stroke-dasharray:none;opacity:0.984;stroke:#000000;stroke-opacity:1" />
  <path
     inkscape:connector-curvature="0"
     id="path30"
     d="m 309.7704,268.2635 26.074,-44.5439 h 51.4617 l 25.3878,44.5439 -25.3878,45.1378 h -51.4617 z"
     style="fill:none;fill-opacity:1;stroke-width:4;stroke-miterlimit:4;stroke-dasharray:none;opacity:0.984;stroke:#000000;stroke-opacity:1" />
  <path
     inkscape:connector-curvature="0"
     id="path32"
     d="m 309.7704,179.1757 26.074,-44.5439 h 51.4617 l 25.3878,44.5439 -25.3878,44.5439 h -51.4617 z"
     style="fill:none;fill-opacity:1;stroke-width:4;stroke-miterlimit:4;stroke-dasharray:none;opacity:0.984;stroke:#000000;stroke-opacity:1" />
  <path
     inkscape:connector-curvature="0"
     id="path34"
     d="m 309.7704,90.0878 26.074,-44.5439 h 51.4617 l 25.3878,44.5439 -25.3878,44.544 h -51.4617 z"
     style="fill:none;fill-opacity:1;stroke-width:4;stroke-miterlimit:4;stroke-dasharray:none;opacity:0.984;stroke:#000000;stroke-opacity:1" />
  <path
     inkscape:connector-curvature="0"
     id="path36"
     d="m 412.6939,536.1209 h 51.4617 l 26.074,44.5439 -26.074,44.544 h -51.4617 l -25.3878,-44.544 z"
     style="fill:none;fill-opacity:1;stroke-width:4;stroke-miterlimit:4;stroke-dasharray:none;opacity:0.984;stroke:#000000;stroke-opacity:1" />
  <path
     inkscape:connector-curvature="0"
     id="path38"
     d="m 387.3061,491.577 25.3878,-44.5439 h 51.4617 l 26.074,44.5439 -26.074,44.5439 h -51.4617 z"
     style="fill:none;fill-opacity:1;stroke-width:4;stroke-miterlimit:4;stroke-dasharray:none;opacity:0.984;stroke:#000000;stroke-opacity:1" />
  <path
     inkscape:connector-curvature="0"
     id="path40"
     d="m 387.3061,402.4892 25.3878,-44.5439 h 51.4617 l 26.074,44.5439 -26.074,44.5439 h -51.4617 z"
     style="fill:none;fill-opacity:1;stroke-width:4;stroke-miterlimit:4;stroke-dasharray:none;opacity:0.984;stroke:#000000;stroke-opacity:1" />
  <path
     inkscape:connector-curvature="0"
     id="path42"
     d="m 387.3061,313.4013 25.3878,-45.1378 h 51.4617 l 26.074,45.1378 -26.074,44.544 h -51.4617 z"
     style="fill:none;fill-opacity:1;stroke-width:4;stroke-miterlimit:4;stroke-dasharray:none;opacity:0.984;stroke:#000000;stroke-opacity:1" />
  <path
     inkscape:connector-curvature="0"
     id="path44"
     d="m 387.3061,223.7196 25.3878,-44.5439 h 51.4617 l 26.074,44.5439 -26.074,44.5439 h -51.4617 z"
     style="fill:none;fill-opacity:1;stroke-width:4;stroke-miterlimit:4;stroke-dasharray:none;opacity:0.984;stroke:#000000;stroke-opacity:1" />
  <path
     inkscape:connector-curvature="0"
     id="path46"
     d="m 387.3061,134.6318 25.3878,-44.544 h 51.4617 l 26.074,44.544 -26.074,44.5439 h -51.4617 z"
     style="fill:none;fill-opacity:1;stroke-width:4;stroke-miterlimit:4;stroke-dasharray:none;opacity:0.984;stroke:#000000;stroke-opacity:1" />
  <path
     inkscape:connector-curvature="0"
     id="path48"
     d="m 464.1556,536.1209 26.074,-44.5439 h 51.4617 l 25.3878,44.5439 -25.3878,44.5439 h -51.4617 z"
     style="fill:none;fill-opacity:1;stroke-width:4;stroke-miterlimit:4;stroke-dasharray:none;opacity:0.984;stroke:#000000;stroke-opacity:1" />
  <path
     inkscape:connector-curvature="0"
     id="path50"
     d="m 464.1556,447.0331 26.074,-44.5439 h 51.4617 l 25.3878,44.5439 -25.3878,44.5439 h -51.4617 z"
     style="fill:none;fill-opacity:1;stroke-width:4;stroke-miterlimit:4;stroke-dasharray:none;opacity:0.984;stroke:#000000;stroke-opacity:1" />
  <path
     inkscape:connector-curvature="0"
     id="path52"
     d="m 464.1556,357.9453 26.074,-44.544 h 51.4617 l 25.3878,44.544 -25.3878,44.5439 h -51.4617 z"
     style="fill:none;fill-opacity:1;stroke-width:4;stroke-miterlimit:4;stroke-dasharray:none;opacity:0.984;stroke:#000000;stroke-opacity:1" />
  <path
     inkscape:connector-curvature="0"
     id="path54"
     d="m 464.1556,268.2635 26.074,-44.5439 h 51.4617 l 25.3878,44.5439 -25.3878,45.1378 h -51.4617 z"
     style="fill:none;fill-opacity:1;stroke-width:4;stroke-miterlimit:4;stroke-dasharray:none;opacity:0.984;stroke:#000000;stroke-opacity:1" />
  <path
     inkscape:connector-curvature="0"
     id="path56"
     d="m 464.1556,179.1757 26.074,-44.5439 h 51.4617 l 25.3878,44.5439 -25.3878,44.5439 h -51.4617 z"
     style="fill:none;fill-opacity:1;stroke-width:4;stroke-miterlimit:4;stroke-dasharray:none;opacity:0.984;stroke:#000000;stroke-opacity:1" />
  <path
     inkscape:connector-curvature="0"
     id="path58"
     d="m 541.6913,491.577 25.3878,-44.5439 h 51.4617 l 26.074,44.5439 -26.074,44.5439 h -51.4617 z"
     style="fill:none;fill-opacity:1;stroke-width:4;stroke-miterlimit:4;stroke-dasharray:none;opacity:0.984;stroke:#000000;stroke-opacity:1" />
  <path
     inkscape:connector-curvature="0"
     id="path60"
     d="m 618.5408,447.0331 26.074,-44.5439 h 51.4617 l 25.3878,44.5439 -25.3878,44.5439 h -51.4617 z"
     style="fill:none;fill-opacity:1;stroke-width:4;stroke-miterlimit:4;stroke-dasharray:none;opacity:0.984;stroke:#000000;stroke-opacity:1" />
  <path
     inkscape:connector-curvature="0"
     id="path62"
     d="m 696.0765,491.577 25.3878,-44.5439 h 51.4618 L 799,491.577 772.9261,536.1209 h -51.4618 z"
     style="fill:none;fill-opacity:1;stroke-width:4;stroke-miterlimit:4;stroke-dasharray:none;opacity:0.984;stroke:#000000;stroke-opacity:1" />
  <path
     inkscape:connector-curvature="0"
     id="path64"
     d="m 696.0765,402.4892 25.3878,-44.5439 h 51.4618 L 799,402.4892 772.9261,447.0331 h -51.4618 z"
     style="fill:none;fill-opacity:1;stroke-width:4;stroke-miterlimit:4;stroke-dasharray:none;opacity:0.984;stroke:#000000;stroke-opacity:1" />
</svg>
